<svg width="960" height="1080" viewBox="0 0 960 1080" fill="none" xmlns="http://www.w3.org/2000/svg">
<g clip-path="url(#clip0_707_2809)">
<path d="M-229.613 1008.83C416.283 766.294 1320.54 249.535 -229.613 122.751L-229.613 1008.83Z" fill="white"/>
<path d="M-408.623 946.59C237.273 704.058 1141.53 310.49 -408.623 183.706L-408.623 946.59Z" fill="#161616"/>
<path d="M-579.294 899.109C66.6027 686.971 970.858 342.722 -579.294 231.826L-579.294 899.109Z" fill="white"/>
<path d="M-443.27 791.318C-29.7802 637.11 549.106 386.868 -443.27 306.255L-443.27 791.318Z" fill="#161616"/>
<circle cx="2.56647" cy="2.56647" r="2.56647" transform="matrix(1 8.74228e-08 8.74228e-08 -1 380.566 397.364)" fill="#7E43FA"/>
<circle cx="2.56647" cy="2.56647" r="2.56647" transform="matrix(1 8.74228e-08 8.74228e-08 -1 623.098 973.537)" fill="#7E43FA"/>
<circle cx="2.56647" cy="2.56647" r="2.56647" transform="matrix(1 8.74228e-08 8.74228e-08 -1 942.625 295.988)" fill="#7E43FA"/>
<circle cx="2.56647" cy="2.56647" r="2.56647" transform="matrix(1 8.74228e-08 8.74228e-08 -1 143.168 150.982)" fill="#7E43FA"/>
<circle cx="2.56647" cy="2.56647" r="2.56647" transform="matrix(1 8.74228e-08 8.74228e-08 -1 362.602 852.913)" fill="white"/>
<circle cx="2.56647" cy="2.56647" r="2.56647" transform="matrix(1 8.74228e-08 8.74228e-08 -1 879.867 638)" fill="white"/>
<circle cx="2.56647" cy="2.56647" r="2.56647" transform="matrix(1 8.74228e-08 8.74228e-08 -1 472.961 711.757)" fill="white"/>
<circle cx="459.485" cy="346.677" r="1.92485" transform="rotate(-180 459.485 346.677)" fill="#161616"/>
<circle cx="198.989" cy="256.85" r="1.92485" transform="rotate(-180 198.989 256.85)" fill="#161616"/>
<circle cx="127.129" cy="924.133" r="22.4566" transform="rotate(-180 127.129 924.133)" fill="#7E43FA"/>
<circle cx="327.658" cy="592.12" r="32.7225" transform="rotate(-161.7 327.658 592.12)" fill="#7E43FA"/>
<path d="M317.384 623.187C334.542 628.862 352.883 620.06 358.726 602.394C361.663 593.512 361.572 587.041 357.858 578.454C356.448 582.719 306.615 616.923 306.615 616.923C306.615 616.923 308.246 620.165 317.384 623.187Z" fill="#161616"/>
<circle cx="456.919" cy="268.399" r="4.49133" transform="rotate(-180 456.919 268.399)" fill="#161616"/>
<circle cx="206.688" cy="458.318" r="3.20809" transform="rotate(-180 206.688 458.318)" fill="#161616"/>
<circle cx="55.2665" cy="791.96" r="4.49133" transform="rotate(-180 55.2665 791.96)" fill="#161616"/>
<rect x="179.1" y="657.533" width="1.94117" height="1.94117" rx="0.265094" transform="rotate(155.552 179.1 657.533)" fill="white"/>
<rect x="562.787" y="269.996" width="3.89396" height="3.89396" rx="0.531777" transform="rotate(155.552 562.787 269.996)" fill="white"/>
<rect x="421.934" y="599.434" width="3.37824" height="3.37824" rx="0.481997" transform="rotate(-144.694 421.934 599.434)" fill="#161616"/>
<rect x="326.006" y="301.211" width="4.02097" height="4.02097" rx="0.619105" transform="rotate(-149.546 326.006 301.211)" fill="#161616"/>
<path d="M361.344 486.382C361.214 486.139 361.255 485.841 361.446 485.642L363.499 483.504C363.689 483.305 363.986 483.252 364.233 483.372L366.901 484.664C367.149 484.784 367.291 485.049 367.254 485.322L366.85 488.258C366.813 488.531 366.604 488.748 366.333 488.797L363.415 489.32C363.145 489.369 362.873 489.238 362.743 488.995L361.344 486.382Z" fill="white"/>
<path d="M57.8886 499.327C57.7995 499.224 57.7871 499.075 57.8579 498.958L58.6207 497.701C58.6915 497.584 58.8294 497.526 58.9623 497.558L60.3935 497.895C60.5263 497.926 60.6239 498.039 60.6352 498.175L60.757 499.641C60.7683 499.777 60.6907 499.904 60.5648 499.957L59.2089 500.526C59.083 500.579 58.9375 500.544 58.8484 500.441L57.8886 499.327Z" fill="white"/>
<path d="M203.812 825.316C203.537 825.318 203.292 825.142 203.206 824.88L202.276 822.066C202.19 821.805 202.281 821.517 202.503 821.355L204.893 819.601C205.115 819.438 205.416 819.436 205.639 819.597L208.046 821.328C208.269 821.488 208.364 821.774 208.28 822.036L207.378 824.86C207.294 825.122 207.051 825.3 206.776 825.302L203.812 825.316Z" fill="white"/>
<path d="M-3.31494 395.457C-3.42249 395.29 -3.41013 395.073 -3.28433 394.919L-1.92903 393.26C-1.80323 393.106 -1.5926 393.051 -1.40731 393.123L0.588998 393.899C0.774294 393.971 0.892113 394.154 0.880833 394.353L0.759312 396.492C0.748032 396.69 0.610221 396.859 0.417954 396.909L-1.65346 397.455C-1.84572 397.505 -2.04871 397.426 -2.15626 397.259L-3.31494 395.457Z" fill="white"/>
<path d="M276.957 134.935C276.681 134.936 276.437 134.76 276.35 134.499L275.421 131.684C275.334 131.423 275.426 131.136 275.648 130.973L278.037 129.219C278.259 129.056 278.561 129.054 278.784 129.215L281.191 130.946C281.414 131.106 281.509 131.392 281.425 131.655L280.523 134.478C280.439 134.74 280.196 134.919 279.921 134.92L276.957 134.935Z" fill="white"/>
<path d="M581.782 495.058C581.567 495.059 581.377 494.922 581.309 494.718L580.584 492.523C580.517 492.32 580.588 492.096 580.761 491.969L582.625 490.601C582.798 490.474 583.033 490.473 583.207 490.598L585.084 491.948C585.258 492.073 585.332 492.296 585.266 492.5L584.563 494.702C584.498 494.907 584.308 495.046 584.094 495.047L581.782 495.058Z" fill="#161616"/>
<path d="M552.603 390.293C552.336 390.414 552.039 390.2 552.068 389.908L552.429 386.3C552.458 386.008 552.792 385.857 553.03 386.028L555.975 388.146C556.213 388.317 556.176 388.681 555.909 388.802L552.603 390.293Z" fill="#161616"/>
</g>
<defs>
<clipPath id="clip0_707_2809">
<rect width="960" height="1080" fill="white" transform="translate(960 1080) rotate(-180)"/>
</clipPath>
</defs>
</svg>
