<svg width="25" height="24" viewBox="0 0 25 24" fill="none" xmlns="http://www.w3.org/2000/svg">
<g clip-path="url(#clip0_643_3758)">
<path d="M11.5756 15H5.08376L3.08376 20H0.929688L7.32969 4H9.32969L15.7297 20H13.5756L11.5756 15ZM10.7756 13L8.32969 6.88516L5.88376 13H10.7756ZM21.3297 12.5351V12H23.3297V20H21.3297V19.4649C20.7414 19.8052 20.0583 20 19.3297 20C17.1206 20 15.3297 18.2091 15.3297 16C15.3297 13.7909 17.1206 12 19.3297 12C20.0583 12 20.7414 12.1948 21.3297 12.5351ZM19.3297 18C20.4343 18 21.3297 17.1046 21.3297 16C21.3297 14.8954 20.4343 14 19.3297 14C18.2251 14 17.3297 14.8954 17.3297 16C17.3297 17.1046 18.2251 18 19.3297 18Z" fill="#7E43FA"/>
</g>
<defs>
<clipPath id="clip0_643_3758">
<rect width="24" height="24" fill="white" transform="translate(0.332031)"/>
</clipPath>
</defs>
</svg>
