<svg width="28" height="29" viewBox="0 0 28 29" fill="none" xmlns="http://www.w3.org/2000/svg">
<path d="M12.7224 2.9502L24.2718 4.60011L25.9217 16.1495L15.1972 26.874C14.7417 27.3296 14.003 27.3296 13.5473 26.874L1.99796 15.3246C1.54235 14.869 1.54235 14.1302 1.99796 13.6747L12.7224 2.9502ZM13.5473 5.42507L4.47284 14.4996L14.3723 24.3991L23.4468 15.3246L22.2095 6.66251L13.5473 5.42507ZM16.0223 12.8497C15.111 11.9385 15.111 10.4611 16.0223 9.54985C16.9335 8.63863 18.4108 8.63863 19.3221 9.54985C20.2333 10.4611 20.2333 11.9385 19.3221 12.8497C18.4108 13.7609 16.9335 13.7609 16.0223 12.8497Z" fill="#333333"/>
</svg>
