<svg width="18" height="18" viewBox="0 0 18 18" fill="none" xmlns="http://www.w3.org/2000/svg">
<path d="M14.0252 12.8478L17.5943 16.4162L16.4152 17.5953L12.8469 14.0262C11.5191 15.0905 9.86768 15.6694 8.16602 15.667C4.02602 15.667 0.666016 12.307 0.666016 8.16699C0.666016 4.02699 4.02602 0.666992 8.16602 0.666992C12.306 0.666992 15.666 4.02699 15.666 8.16699C15.6684 9.86866 15.0895 11.5201 14.0252 12.8478ZM12.3535 12.2295C13.4111 11.1419 14.0017 9.68402 13.9993 8.16699C13.9993 4.94366 11.3885 2.33366 8.16602 2.33366C4.94268 2.33366 2.33268 4.94366 2.33268 8.16699C2.33268 11.3895 4.94268 14.0003 8.16602 14.0003C9.68304 14.0027 11.1409 13.4121 12.2285 12.3545L12.3535 12.2295Z" fill="#828282"/>
</svg>
