<svg width="18" height="18" viewBox="0 0 18 18" fill="none" xmlns="http://www.w3.org/2000/svg">
<path d="M14.0252 12.8469L17.5943 16.4152L16.4152 17.5943L12.8469 14.0252C11.5191 15.0895 9.86768 15.6684 8.16602 15.666C4.02602 15.666 0.666016 12.306 0.666016 8.16602C0.666016 4.02602 4.02602 0.666016 8.16602 0.666016C12.306 0.666016 15.666 4.02602 15.666 8.16602C15.6684 9.86768 15.0895 11.5191 14.0252 12.8469ZM12.3535 12.2285C13.4111 11.1409 14.0017 9.68304 13.9993 8.16602C13.9993 4.94268 11.3885 2.33268 8.16602 2.33268C4.94268 2.33268 2.33268 4.94268 2.33268 8.16602C2.33268 11.3885 4.94268 13.9993 8.16602 13.9993C9.68304 14.0017 11.1409 13.4111 12.2285 12.3535L12.3535 12.2285Z" fill="#828282"/>
</svg>
